<svg xmlns="http://www.w3.org/2000/svg" width="512" height="512"><path d="M441.253 459.2q0 9.685-29.781 9.685-29.782 0-58.795-4.053-28.16-4.01-31.403-8.875-.853 0-.853-.81L255.994 339.86l-64.426 115.286V456q-1.579 3.2-2.347 4.01l-3.243 3.2q-1.621 2.433-4.01 3.243-8.875 2.432-20.95 2.432-61.994 0-86.186-8.874-4.822-2.432-4.011-4.054l123.221-210.432L86.95 56q-7.253-12.885 32.17-12.885 25.003 0 49.153 4.053 24.149 4.01 27.392 8.832v.853l57.173 107.222L301.136 57.62q7.253-14.506 33.024-14.506 25.77 0 49.92 4.053 24.192 4.01 22.57 8.832l-87.808 189.525 121.6 210.432q.854 1.622.854 3.243z" fill="#e24848"/></svg>