<svg xmlns="http://www.w3.org/2000/svg" viewBox="0 0 47.625 19.05"><path d="M3.8 14.817c-1.56 0-2.498-.366-3.026-1.096C.258 12.99 0 11.679 0 9.79c0-1.361.12-2.394.359-3.1.239-.718.597-1.203 1.075-1.455.491-.265 1.208-.397 2.152-.397.944 0 1.655.132 2.133.397.49.265.85.756 1.076 1.474.226.718.34 1.739.34 3.062v.226c0 .076-.151.145-.453.208-.29.063-.642.095-1.057.095H2.718c.025 1.474.132 2.312.32 2.513.114.101.297.152.548.152 1.649 0 2.775-.082 3.379-.246a.145.145 0 0 1 .056-.019c.089-.025.158.025.208.151.063.126.094.422.094.888 0 .467-.1.725-.302.775-.515.202-1.66.303-3.22.303zM2.718 7.314v1.474h1.906c-.05-1.462-.195-2.192-.434-2.192-.428 0-.78.063-1.057.189-.277.126-.415.302-.415.529z" fill="#333"/><path d="M12.673 4.838q1.397 0 2.039 1.153.66 1.134.66 3.969 0 2.834-.83 3.855-.812 1.002-3.095 1.002h-.906v3.93q0 .114-.02.152-.094.151-.717.151-.622 0-1.208-.094-.585-.095-.585-.208V5.14q0-.302.887-.302.888 0 1.057.34l.359.718q1.586-1.058 2.36-1.058zm-1.226 8.164q.698 0 .943-.567.265-.585.265-1.946 0-1.38-.02-1.814 0-.435-.018-1.002-.038-1.02-.264-1.02-.68 0-1.812.68v5.67zM16.061 14.514V5.14q0-.302.68-.302t1.283.095q.604.094.604.207v9.374q0 .114-.018.151-.095.152-.718.152t-1.227-.095q-.604-.094-.604-.208zm1.17-11.793q-1.358 0-1.358-1.36Q15.873 0 17.232 0t1.359 1.36q0 1.361-1.36 1.361z" fill="#1a1a1a"/><path d="M28.098 14.59q0 .227-.698.227t-1.378-.095q-.66-.094-.736-.208-.019 0-.019-.019l-1.51-2.702-1.51 2.702v.02q-.038.075-.056.094l-.076.075q-.038.057-.094.076-.208.057-.491.057-1.453 0-2.02-.208-.113-.057-.094-.095l2.888-4.932-2.51-4.442q-.17-.302.754-.302.586 0 1.152.095.566.094.642.207v.02l1.34 2.513 1.132-2.495q.17-.34.774-.34t1.17.095q.567.094.529.207l-2.058 4.442 2.85 4.932q.02.038.02.076z" fill="#e24848"/><path d="M29.072 14.514V5.14q0-.302.68-.302.679 0 1.283.095.604.094.604.207v9.374q0 .114-.019.151-.094.152-.717.152t-1.227-.095q-.604-.094-.604-.208zm1.17-11.793q-1.359 0-1.359-1.36Q28.883 0 30.243 0 31.6 0 31.6 1.36q0 1.361-1.359 1.361zM36.943 13.928q-.982.889-1.755.889-.755 0-1.227-.114-.472-.094-.85-.434-.377-.36-.528-1.02-.151-.662-.151-1.759 0-1.53 1.49-2.097l2.7-.7q-.019-1.228-.245-1.587-.227-.36-.982-.36t-1.302.247l-.66.264h-.02q-.17.095-.302-.151-.34-.718-.34-1.115 0-.416.057-.454.076-.056.076-.075.943-.624 2.435-.624 1.51 0 2.321.397.812.397 1.17 1.455.378 1.04.378 3.1l-.038 4.724q0 .114-.038.151-.075.152-.717.152-1.17 0-1.17-.303zm-2.416-2.4q0 1.361.793 1.437.547 0 .792-.19.529-.358.529-2.683-.982.132-1.548.548-.566.397-.566.888z" fill="#1a1a1a"/><path d="M44.926 4.838q1.397 0 2.038.87.661.869.661 3.061v5.745q0 .114-.019.151-.094.152-.736.152-.623 0-1.284-.095-.66-.094-.66-.208l-.019-5.745q0-2.117-.302-2.117-.68 0-1.812.68v7.182q0 .114-.019.151-.094.152-.736.152-.623 0-1.302-.095-.661-.094-.661-.208V5.14q0-.302.755-.302 1.19 0 1.359.302 0 .038.019.038l.358.718q1.586-1.058 2.36-1.058z" fill="#333"/></svg>